<svg xmlns="http://www.w3.org/2000/svg" viewBox="0 0 116.01 116.01"><g id="Layer_2" data-name="Layer 2"><g id="Layer_1-2" data-name="Layer 1"><rect width="116.01" height="116.01" rx="10" style="fill:none"/><path d="M30.37,18.41H25.69L26.05,17H51.11c14.11,0,22.18,5.26,22.18,19.44,0,19.88-14,31.25-33.13,31.25H12.37l.36-1.37h4.39Zm1.66,48h4.39c8.86,0,13.25-2.52,18.58-18.14,2.66-7.71,4.46-16.49,4.46-21.82,0-4.75-2.45-8-8-8H45.2Z" style="fill:#9daaf2"/><path d="M77.14,17.05h31.77l-.47,1.79h-6.3l-14.38,52C84,84.63,76.29,95,57.4,95c-11,0-16.63-7.42-16.63-13.25s3.28-10.43,9-10.43c5,0,8.46,3,8.46,8.46A8.33,8.33,0,0,1,50,88.21a10.47,10.47,0,0,1-4.61-.94l-.19.18c2.35,3,5,4.61,9,4.61,6.67,0,9.87-5.26,13.15-17.3L82.78,18.84H76.67Z" style="fill:#ff6a3d"/><path d="M32.25,72.11H41.5L36.63,89.33a5.45,5.45,0,0,0-.34,1.82.87.87,0,0,0,.88,1c.69,0,1.18-.44,3.4-3.29l.73.54c-2.51,3.39-4.23,5.41-8.65,5.41-2.76,0-4.48-1-5.17-4h-.1a7.32,7.32,0,0,1-6.74,4c-5.51,0-8.11-4.33-8.11-9.74,0-7.09,5.7-14.32,13-14.32,2.76,0,5.22,1.43,5.81,4.43h.1Zm-7.62,4.28c-1.77,5.46-3.84,12.69-3.84,14.81,0,1.72,1,2.06,2,2.06,1.72,0,3.34-1.62,4-3.29,1.57-3.69,3.54-11.12,3.54-13.48s-1.08-3.94-2.51-3.94C26.25,72.55,25.41,73.93,24.63,76.39Z" style="fill:#9daaf2"/></g></g></svg>