<svg xmlns="http://www.w3.org/2000/svg" viewBox="0 0 208.81 89.96"><g id="Layer_2" data-name="Layer 2"><g id="Layer_1-2" data-name="Layer 1"><path d="M3.58,67.5H8.94L22.62,18.39H16.81l.37-1.32H41.73c10.74,0,19.92,6.4,19.92,20.51C61.65,54.42,49,68.83,32,68.83H3.21Zm16.32,0h9.33a15.45,15.45,0,0,0,12.21-5.22C47,56,52,36.33,52,30.82c0-9.63-5.51-12.43-10.73-12.43H33.57Z" transform="translate(0 -16.81)" style="fill:#9daaf2"/><path d="M91.06,47.67A28.61,28.61,0,0,0,90,51.56c0,1.22.58,1.51,1.3,1.51,2.3,0,6.29-6.51,7.08-8.09l0,2.83c-2,3.53-5.33,7.85-10.66,7.85-3.6,0-5.54-3.24-5.54-7.34h-.15c-1.44,3-5.25,7.34-10,7.34-5.61,0-8.71-4.9-8.71-11.38,0-8.35,7.35-21.6,18.44-21.6,3.67,0,5.54,1.87,6,5.33h.15l1.29-4.46h9ZM73.28,40.61a68.41,68.41,0,0,0-2.59,11c0,2.09,1.29,2.73,2.44,2.73,2.38,0,6.56-2.44,9.15-9,2.45-6.12,4.61-12.89,4.61-15.91,0-4.25-2.23-5.47-4-5.47-2.31,0-4.18.86-7.35,10.08Z" transform="translate(0 -16.81)" style="fill:#9daaf2"/><path d="M104.17,24.84H100l.29-1.29h7.41c3.46,0,5.19-.58,6.63-1.59l-2.95,9.15.14.07c2.95-3.6,6.91-8.5,12.39-8.5,4.32,0,6.69,2.38,6.69,6.05,0,2.16-1.51,6.26-2.73,9.79l-3.24,9.15a20.17,20.17,0,0,0-1.08,3.89c0,1.22.57,1.51,1.29,1.51,2.31,0,5.33-4.25,6.12-5.83l1,.57c-2,3.53-5.33,7.85-10.66,7.85a5.76,5.76,0,0,1-6-6,14.85,14.85,0,0,1,1-4.1L122,28.66a10.47,10.47,0,0,0,.8-3.17c0-.94-.87-1.08-1.52-1.08-3.45,0-10.15,8.21-11.16,11.66l-5.4,18.73H95.53Z" transform="translate(0 -16.81)" style="fill:#9daaf2"/><path d="M158.17,47.67a28.61,28.61,0,0,0-1.08,3.89c0,1.22.57,1.51,1.29,1.51,2.31,0,5.33-4.25,6.13-5.83l1,.57c-2,3.53-5.33,7.85-10.65,7.85-3.6,0-5.55-3.24-5.55-7.34h-.14c-1.44,3-5.26,7.34-10,7.34-5.62,0-8.71-4.9-8.71-11.38,0-8.35,7.34-21.6,18.43-21.6,3.67,0,5.54,1.87,6,5.33H155l1.3-4.46h9Zm-17.79-7.06a68.41,68.41,0,0,0-2.59,11c0,2.09,1.3,2.73,2.45,2.73,2.37,0,6.55-2.44,9.14-9,2.45-6.12,4.61-12.89,4.61-15.91,0-4.25-2.23-5.47-4-5.47-2.3,0-4.18.86-7.35,10.08Z" transform="translate(0 -16.81)" style="fill:#9daaf2"/><path d="M174.61,16.81h34.2l-.57,2.05H200L182.22,82.14a33.44,33.44,0,0,1-31.81,24.43c-6.93,0-13.86-5.57-13.86-12.84,0-5.91,3.29-10.56,9.43-10.56,4.43,0,8.29,3.06,8.29,7.72,0,5.11-2.72,8.64-7.38,8.64-1.36,0-1.82-.68-3.18-.68a1.42,1.42,0,0,0-1.59,1.36c0,1.7,4.43,4.32,8.06,4.32,9.66,0,12-11.14,13.87-17.5l19-68.17h-9Z" transform="translate(0 -16.81)" style="fill:#ff6a3d"/><path d="M25.69,99.37a26.36,26.36,0,0,0-1,3.6c0,1.13.54,1.4,1.2,1.4,2.14,0,5.88-5.25,6.61-6.72V99.5c-1.87,3.27-4.94,7.27-9.88,7.27-3.33,0-5.13-3-5.13-6.8h-.14c-1.33,2.73-4.87,6.8-9.27,6.8C2.87,106.77,0,102.24,0,96.23c0-7.74,6.81-20,17.08-20,3.41,0,5.14,1.73,5.54,4.94h.14L24,77H32.3ZM9.21,92.83A62.75,62.75,0,0,0,6.81,103a2.21,2.21,0,0,0,2.27,2.53c2.2,0,6.07-2.27,8.47-8.34,2.27-5.67,4.27-12,4.27-14.75,0-3.94-2.07-5.07-3.73-5.07-2.14,0-3.87.8-6.81,9.34Z" transform="translate(0 -16.81)" style="fill:#9daaf2"/><path d="M38.17,78.21H34L34.3,77h6.87c3.21,0,4.81-.53,6.14-1.47L44.84,83H45c1.87-2.74,5.2-6.74,9.14-6.74,2.87,0,5.2,1.33,5.2,4.67a4.78,4.78,0,0,1-5,4.94,4,4,0,0,1-4.2-4.14,5.52,5.52,0,0,1,1.46-3.27c0-.2-.13-.2-.26-.2-1.47,0-6.74,6.47-7.21,8.14L38.44,106H29.89Z" transform="translate(0 -16.81)" style="fill:#9daaf2"/><path d="M79.94,59h3.61c6.4,0,8.2-1,9.54-2.07L80.54,99.37a26.36,26.36,0,0,0-1,3.6c0,1.13.54,1.4,1.2,1.4,2.14,0,4.94-3.94,5.68-5.4l.93.53c-1.87,3.27-4.94,7.27-9.88,7.27-3.33,0-5.13-3-5.13-6.8H72.2c-1.33,2.73-4.87,6.8-9.27,6.8-5.21,0-8.08-4.53-8.08-10.54,0-7.74,6.81-20,17.08-20,3.41,0,5.14,1.73,5.54,4.94h.14l6.07-21h-4ZM64.06,92.83A62.75,62.75,0,0,0,61.66,103a2.21,2.21,0,0,0,2.27,2.53c2.2,0,6.07-2.27,8.47-8.34,2.27-5.67,4.27-12,4.27-14.75,0-3.94-2.07-5.07-3.73-5.07-2.14,0-3.87.8-6.81,9.34Z" transform="translate(0 -16.81)" style="fill:#9daaf2"/><path d="M109.3,99.83a14.38,14.38,0,0,1-12.48,6.94c-7.2,0-10.87-5.14-10.87-11,0-8.87,9.47-19.82,18-19.55,3.87,0,8.27,2.4,8.27,6.87,0,6.94-6.87,9.61-12.88,9.61a15.63,15.63,0,0,1-3.93-.53A36.09,36.09,0,0,0,94,101.1c0,2.74,1.67,4.47,4.21,4.47,4.14,0,8.8-3.8,11.14-7.33ZM103.56,77c-3.13,0-5.13,4.87-7.87,14.21a6.22,6.22,0,0,0,2.8.67c2.94,0,4.21-1.73,5.21-4.34s2.07-5.54,2.07-7.8C105.77,77.74,104.57,77,103.56,77Z" transform="translate(0 -16.81)" style="fill:#9daaf2"/><path d="M116.57,59h3.61c6.41,0,8.21-1,9.54-2.07L117.38,99.37a25.3,25.3,0,0,0-1,3.6c0,1.13.54,1.4,1.21,1.4,2.13,0,5.73-5.61,6.47-7.07l.13,2.2c-1.87,3.27-4.94,7.27-9.27,7.27-6.14,0-6.14-5-6.14-5.54a15.86,15.86,0,0,1,.8-3.93l10.88-37.11h-4.14Z" transform="translate(0 -16.81)" style="fill:#9daaf2"/><path d="M131.05,59h3.61c6.41,0,8.21-1,9.54-2.07L131.86,99.37a26.75,26.75,0,0,0-1,3.6c0,1.13.54,1.4,1.21,1.4,2.13,0,4.93-3.94,5.67-5.4l.93.53c-1.87,3.27-4.94,7.27-9.27,7.27-6.14,0-6.14-5-6.14-5.54a15.86,15.86,0,0,1,.8-3.93l10.88-37.11h-4.14Z" transform="translate(0 -16.81)" style="fill:#9daaf2"/></g></g></svg>